<svg width="800" height="800" viewBox="0 0 800 800" fill="none" xmlns="http://www.w3.org/2000/svg">
<path opacity="0.5" d="M133.333 333.333C133.333 207.625 133.333 144.772 172.386 105.719C211.438 66.6668 274.292 66.6667 400 66.6667C525.707 66.6667 588.563 66.6668 627.613 105.719C666.667 144.772 666.667 207.625 666.667 333.333V466.667C666.667 592.373 666.667 655.23 627.613 694.28C588.563 733.333 525.707 733.333 400 733.333C274.292 733.333 211.438 733.333 172.386 694.28C133.333 655.23 133.333 592.373 133.333 466.667V333.333Z" stroke="#234A4C" stroke-width="50"/>
<path d="M466.667 250C466.667 286.819 436.82 316.667 400 316.667C363.18 316.667 333.333 286.819 333.333 250C333.333 213.181 363.18 183.333 400 183.333C436.82 183.333 466.667 213.181 466.667 250Z" stroke="#234A4C" stroke-width="50"/>
<path d="M500 516.667C500 571.897 455.23 616.667 400 616.667C344.77 616.667 300 571.897 300 516.667C300 461.437 344.77 416.667 400 416.667C455.23 416.667 500 461.437 500 516.667Z" stroke="#234A4C" stroke-width="50"/>
</svg>
